<svg width="21" height="20" viewBox="0 0 21 20" fill="none" xmlns="http://www.w3.org/2000/svg">
<path fill-rule="evenodd" clip-rule="evenodd" d="M17.7214 18H4.02859C3.41961 18 2.95243 17.4609 3.03875 16.859L4.18171 8.85898C4.25163 8.36602 4.67389 8 5.17154 8H5.87466V10C5.87466 10.552 6.3227 11 6.87465 11C7.42777 11 7.87464 10.552 7.87464 10V8H13.8746V10C13.8746 10.552 14.3226 11 14.8746 11C15.4277 11 15.8746 10.552 15.8746 10V8H16.5785C17.0765 8 17.4984 8.36602 17.5683 8.85898L18.7112 16.859C18.7976 17.4609 18.3304 18 17.7214 18ZM7.87464 5C7.87464 3.34609 9.22072 2 10.8746 2C12.5297 2 13.8746 3 13.8746 5V6H7.87464V5ZM20.8546 17.7172L19.4257 7.71719C19.2858 6.73203 18.4417 6 17.4456 6H15.8746V5C15.8746 2 13.6316 0 10.8746 0C8.11878 0 5.87466 2.24297 5.87466 5V6H4.60944C3.61453 6 2.46454 6.73203 2.32353 7.71719L0.895417 17.7172C0.723544 18.9223 1.65869 20 2.87547 20H18.8745C20.0913 20 21.0265 18.9223 20.8546 17.7172Z" fill="black"/>
</svg>
